<svg viewBox="0 0 700 260" xmlns="http://www.w3.org/2000/svg">
  <defs>
    <linearGradient id="bg" x1="0" y1="0" x2="1" y2="1">
      <stop offset="0%" stop-color="#1a1a18"/>
      <stop offset="100%" stop-color="#121210"/>
    </linearGradient>
  </defs>
  <rect width="700" height="260" rx="12" fill="url(#bg)" stroke="#26261f"/>
  <rect x="0" y="0" width="6" height="260" rx="3" fill="#6fcf97"/>
  
    <rect x="40" y="50" width="270" height="160" rx="8" fill="#0f0f0d" stroke="#26261f"/>
    <text x="56" y="72" font-family="monospace" font-size="11" fill="#8a8a82">CODE</text>
    <rect x="56" y="84" width="80" height="7" rx="3" fill="#6fcf97" fill-opacity="0.7"/>
    <rect x="56" y="98" width="150" height="7" rx="3" fill="#8a8a82" fill-opacity="0.5"/>
    <rect x="56" y="112" width="120" height="7" rx="3" fill="#8a8a82" fill-opacity="0.5"/>
    <rect x="70" y="126" width="130" height="7" rx="3" fill="#8a8a82" fill-opacity="0.5"/>
    <rect x="56" y="140" width="90" height="7" rx="3" fill="#6fcf97" fill-opacity="0.7"/>
    <rect x="330" y="50" width="270" height="160" rx="8" fill="#0f0f0d" stroke="#26261f"/>
    <text x="346" y="72" font-family="monospace" font-size="11" fill="#8a8a82">PREVIEW</text>
    <rect x="346" y="86" width="238" height="100" rx="6" fill="#6fcf97" fill-opacity="0.12"/>
    <rect x="366" y="150" width="80" height="22" rx="5" fill="#6fcf97"/>
    
  <text x="24" y="238" font-family="monospace" font-size="13" fill="#6fcf97" letter-spacing="1">УРОВЕНЬ 1 · НОВИЧОК</text><text x="24" y="24" font-family="sans-serif" font-size="16" fill="#F5F3EC" font-weight="600">Artifacts: Code + Preview</text>
</svg>