<svg viewBox="0 0 700 260" xmlns="http://www.w3.org/2000/svg">
  <defs>
    <linearGradient id="bg" x1="0" y1="0" x2="1" y2="1">
      <stop offset="0%" stop-color="#1a1a18"/>
      <stop offset="100%" stop-color="#121210"/>
    </linearGradient>
  </defs>
  <rect width="700" height="260" rx="12" fill="url(#bg)" stroke="#26261f"/>
  <rect x="0" y="0" width="6" height="260" rx="3" fill="#5aa9e6"/>
  
    <rect x="40" y="80" width="90" height="60" rx="8" fill="#0f0f0d" stroke="#26261f"/>
    <text x="85" y="118" font-size="24" text-anchor="middle">📝</text>
    <rect x="40" y="160" width="90" height="60" rx="8" fill="#0f0f0d" stroke="#26261f"/>
    <text x="85" y="198" font-size="24" text-anchor="middle">📁</text>
    <path d="M130 110 C220 110 220 130 300 130" stroke="#5aa9e6" stroke-width="2.5" fill="none" stroke-dasharray="5 5"/>
    <path d="M130 190 C220 190 220 130 300 130" stroke="#5aa9e6" stroke-width="2.5" fill="none" stroke-dasharray="5 5"/>
    <circle cx="330" cy="130" r="34" fill="#5aa9e6" fill-opacity="0.2" stroke="#5aa9e6" stroke-width="2.5"/>
    <text x="330" y="138" font-size="24" text-anchor="middle">🔌</text>
    <rect x="400" y="98" width="200" height="64" rx="8" fill="#0f0f0d" stroke="#26261f"/>
    <rect x="416" y="112" width="150" height="8" rx="3" fill="#5aa9e6" fill-opacity="0.7"/>
    <rect x="416" y="128" width="120" height="8" rx="3" fill="#8a8a82" fill-opacity="0.5"/>
    <rect x="416" y="144" width="140" height="8" rx="3" fill="#8a8a82" fill-opacity="0.5"/>
    
  <text x="24" y="238" font-family="monospace" font-size="13" fill="#5aa9e6" letter-spacing="1">УРОВЕНЬ 2 · УВЕРЕННЫЙ ПОЛЬЗОВАТЕЛЬ</text><text x="24" y="24" font-family="sans-serif" font-size="16" fill="#F5F3EC" font-weight="600">Notion · Google Drive</text>
</svg>