<svg viewBox="0 0 700 260" xmlns="http://www.w3.org/2000/svg">
  <defs>
    <linearGradient id="bg" x1="0" y1="0" x2="1" y2="1">
      <stop offset="0%" stop-color="#1a1a18"/>
      <stop offset="100%" stop-color="#121210"/>
    </linearGradient>
  </defs>
  <rect width="700" height="260" rx="12" fill="url(#bg)" stroke="#26261f"/>
  <rect x="0" y="0" width="6" height="260" rx="3" fill="#5aa9e6"/>
  
    <rect x="40" y="50" width="160" height="160" rx="8" fill="#0f0f0d" stroke="#26261f"/>
    <rect x="56" y="66" width="90" height="10" rx="3" fill="#5aa9e6"/>
    <rect x="56" y="90" width="128" height="8" rx="3" fill="#8a8a82" fill-opacity="0.5"/>
    <rect x="56" y="106" width="100" height="8" rx="3" fill="#8a8a82" fill-opacity="0.5"/>
    <rect x="220" y="50" width="340" height="160" rx="8" fill="#0f0f0d" stroke="#26261f"/>
    <rect x="230" y="70" width="16" height="16" rx="3" fill="#5aa9e6" fill-opacity="0.6"/><rect x="256" y="74" width="130" height="8" rx="3" fill="#8a8a82" fill-opacity="0.6"/><rect x="230" y="100" width="16" height="16" rx="3" fill="#5aa9e6" fill-opacity="0.6"/><rect x="256" y="104" width="120" height="8" rx="3" fill="#8a8a82" fill-opacity="0.6"/><rect x="230" y="130" width="16" height="16" rx="3" fill="#5aa9e6" fill-opacity="0.6"/><rect x="256" y="134" width="110" height="8" rx="3" fill="#8a8a82" fill-opacity="0.6"/>
    
  <text x="24" y="238" font-family="monospace" font-size="18" fill="#5aa9e6" letter-spacing="1">УРОВЕНЬ 2 · УВЕРЕННЫЙ ПОЛЬЗОВАТЕЛЬ</text><text x="24" y="24" font-family="sans-serif" font-size="22" fill="#F5F3EC" font-weight="600">Изолированный контекст</text>
</svg>