<svg viewBox="0 0 700 260" xmlns="http://www.w3.org/2000/svg">
  <defs>
    <linearGradient id="bg" x1="0" y1="0" x2="1" y2="1">
      <stop offset="0%" stop-color="#1a1a18"/>
      <stop offset="100%" stop-color="#121210"/>
    </linearGradient>
  </defs>
  <rect width="700" height="260" rx="12" fill="url(#bg)" stroke="#26261f"/>
  <rect x="0" y="0" width="6" height="260" rx="3" fill="#5aa9e6"/>
  
    <line x1="260" y1="130" x2="120" y2="90" stroke="#5aa9e6" stroke-opacity="0.5" stroke-width="2"/><line x1="260" y1="130" x2="120" y2="170" stroke="#5aa9e6" stroke-opacity="0.5" stroke-width="2"/><line x1="260" y1="130" x2="420" y2="90" stroke="#5aa9e6" stroke-opacity="0.5" stroke-width="2"/><line x1="260" y1="130" x2="420" y2="170" stroke="#5aa9e6" stroke-opacity="0.5" stroke-width="2"/>
    <circle cx="260" cy="130" r="26" fill="#5aa9e6" fill-opacity="0.25" stroke="#5aa9e6" stroke-width="2.5"/>
    <g stroke="#5aa9e6" stroke-width="2" fill="none">
      <rect x="248" y="118" width="24" height="24" rx="3"/>
      <line x1="253" y1="118" x2="253" y2="111"/>
      <line x1="267" y1="118" x2="267" y2="111"/>
      <line x1="253" y1="142" x2="253" y2="149"/>
      <line x1="267" y1="142" x2="267" y2="149"/>
    </g>
    <circle cx="120" cy="90" r="14" fill="#1a1a18" stroke="#5aa9e6" stroke-width="2.5"/><circle cx="120" cy="170" r="14" fill="#1a1a18" stroke="#5aa9e6" stroke-width="2.5"/><circle cx="420" cy="90" r="14" fill="#1a1a18" stroke="#5aa9e6" stroke-width="2.5"/><circle cx="420" cy="170" r="14" fill="#1a1a18" stroke="#5aa9e6" stroke-width="2.5"/>
    <rect x="500" y="100" width="150" height="60" rx="8" fill="#0f0f0d" stroke="#26261f"/>
    <rect x="514" y="114" width="100" height="8" rx="3" fill="#8a8a82" fill-opacity="0.6"/>
    <rect x="514" y="130" width="70" height="8" rx="3" fill="#8a8a82" fill-opacity="0.6"/>
    <rect x="514" y="146" width="90" height="8" rx="3" fill="#5aa9e6" fill-opacity="0.6"/>
    
  <text x="24" y="238" font-family="monospace" font-size="18" fill="#5aa9e6" letter-spacing="1">УРОВЕНЬ 2 · УВЕРЕННЫЙ ПОЛЬЗОВАТЕЛЬ</text><text x="24" y="24" font-family="sans-serif" font-size="22" fill="#F5F3EC" font-weight="600">Память между чатами</text>
</svg>