<svg viewBox="0 0 700 260" xmlns="http://www.w3.org/2000/svg">
  <defs>
    <linearGradient id="bg" x1="0" y1="0" x2="1" y2="1">
      <stop offset="0%" stop-color="#1a1a18"/>
      <stop offset="100%" stop-color="#121210"/>
    </linearGradient>
  </defs>
  <rect width="700" height="260" rx="12" fill="url(#bg)" stroke="#26261f"/>
  <rect x="0" y="0" width="6" height="260" rx="3" fill="#5aa9e6"/>
  <rect x="50" y="100" width="160" height="60" rx="8" fill="#0f0f0d" stroke="#5aa9e6" stroke-width="2"/><text x="130.0" y="135" font-family="sans-serif" font-size="14" fill="#F5F3EC" text-anchor="middle">Поиск</text><path d="M218 130 H188 M178 122 L188 130 L178 138" stroke="#5aa9e6" stroke-width="2.5" fill="none"/><rect x="196" y="100" width="160" height="60" rx="8" fill="#0f0f0d" stroke="#5aa9e6" stroke-width="2"/><text x="276.0" y="135" font-family="sans-serif" font-size="14" fill="#F5F3EC" text-anchor="middle">Уточнение</text><path d="M364 130 H334 M324 122 L334 130 L324 138" stroke="#5aa9e6" stroke-width="2.5" fill="none"/><rect x="342" y="100" width="160" height="60" rx="8" fill="#0f0f0d" stroke="#5aa9e6" stroke-width="2"/><text x="422.0" y="135" font-family="sans-serif" font-size="14" fill="#F5F3EC" text-anchor="middle">Сверка</text><path d="M510 130 H480 M470 122 L480 130 L470 138" stroke="#5aa9e6" stroke-width="2.5" fill="none"/><rect x="488" y="100" width="160" height="60" rx="8" fill="#0f0f0d" stroke="#5aa9e6" stroke-width="2"/><text x="568.0" y="135" font-family="sans-serif" font-size="14" fill="#F5F3EC" text-anchor="middle">Отчёт</text>
  <text x="24" y="238" font-family="monospace" font-size="13" fill="#5aa9e6" letter-spacing="1">УРОВЕНЬ 2 · УВЕРЕННЫЙ ПОЛЬЗОВАТЕЛЬ</text><text x="24" y="24" font-family="sans-serif" font-size="16" fill="#F5F3EC" font-weight="600">Многошаговый поиск</text>
</svg>